<svg width="90" height="30" viewBox="0 0 90 30" fill="none" xmlns="http://www.w3.org/2000/svg">
<g clip-path="url(#clip0_42_73)">
<path d="M28.1504 0.90625H0.849609C0.380398 0.90625 0 1.28654 0 1.75586V17.8984H29V1.75586C29 1.28654 28.6196 0.90625 28.1504 0.90625ZM10.003 12.2001C10.3349 12.532 10.3349 13.0697 10.003 13.4015C9.67116 13.7334 9.13347 13.7334 8.80161 13.4015L5.40318 10.0031C5.07132 9.67122 5.07132 9.13353 5.40318 8.80167L8.80161 5.40323C9.13347 5.07137 9.67116 5.07137 10.003 5.40323C10.3349 5.73509 10.3349 6.27278 10.003 6.60464L7.20531 9.40234L10.003 12.2001ZM16.9592 6.38391L13.5608 13.1808C13.3517 13.5977 12.8445 13.7711 12.4208 13.5608C12.001 13.3509 11.8309 12.8406 12.0408 12.4208L15.4392 5.6239C15.6491 5.20493 16.161 5.03648 16.5792 5.2439C16.999 5.45381 17.1691 5.96409 16.9592 6.38391ZM23.5968 10.003L20.1983 13.4015C19.8665 13.7333 19.3288 13.7333 18.9969 13.4015C18.6651 13.0696 18.6651 12.5319 18.9969 12.2001L21.7947 9.40234L18.9969 6.60458C18.6651 6.27272 18.6651 5.73503 18.9969 5.40318C19.3288 5.07132 19.8665 5.07132 20.1983 5.40318L23.5968 8.80161C23.9287 9.13353 23.9287 9.67116 23.5968 10.003ZM10.252 24.6953V26.3945H7.70312C7.23352 26.3945 6.85352 26.7745 6.85352 27.2441C6.85352 27.7137 7.23352 28.0938 7.70312 28.0938H21.2969C21.7665 28.0938 22.1465 27.7137 22.1465 27.2441C22.1465 26.7745 21.7665 26.3945 21.2969 26.3945H18.748V24.6953H10.252ZM0 22.1465C0 22.6161 0.380002 22.9961 0.849609 22.9961H28.1504C28.62 22.9961 29 22.6161 29 22.1465V19.5977H0V22.1465Z" fill="#FF9500"/>
</g>
<path d="M52.704 5.112V8.472H51.616V7.336H49.36V11.912H53.456V10.04H54.544V13H47.04V11.912H48.048V2.088H47.04V0.999999H54.544V3.96H53.456V2.088H49.36V6.248H51.616V5.112H52.704ZM57.1998 11.912H61.9198V10.088H63.0398V13H55.8238V11.848L61.8558 2.088H57.3918V3.88H56.2558V0.999999H63.1998V2.152L57.1998 11.912ZM70.3915 5.112V8.472H69.3035V7.336H67.0475V11.912H71.1435V10.04H72.2315V13H64.7275V11.912H65.7355V2.088H64.7275V0.999999H72.2315V3.96H71.1435V2.088H67.0475V6.248H69.3035V5.112H70.3915Z" fill="white"/>
<path d="M52.208 23.128C52.4213 23.2773 52.6187 23.4107 52.8 23.528C52.992 23.6347 53.1573 23.752 53.296 23.88C53.5733 24.136 53.712 24.4507 53.712 24.824V27.544C53.712 28.024 53.5413 28.392 53.2 28.648C52.912 28.8827 52.5333 29 52.064 29H46.96V26.04H48.112V27.912H52.432V24.792L48.24 22.216C47.8667 22.0027 47.5573 21.784 47.312 21.56C47.0773 21.3253 46.96 21.0107 46.96 20.616V18.6C46.96 17.9707 47.1093 17.5387 47.408 17.304C47.664 17.1013 48.1067 17 48.736 17H53.568V19.96H52.416V18.088H48.24V20.648L52.208 23.128ZM57.7439 18.088V21H59.0399V22.152H57.7439V27.912H59.2639V29H57.9199C57.4399 29 57.0825 28.8773 56.8479 28.632C56.6132 28.376 56.4959 27.944 56.4959 27.336V22.152H55.3119V21H56.4959V18.088H57.7439ZM62.662 29.032C61.83 29.032 61.414 28.6213 61.414 27.8V22.072H60.39V20.984H62.71V27.912L65.894 25.912V22.072H65.11V20.984H67.19V27.912H68.198V29H65.894V27.208L63.238 28.872C63.0673 28.9787 62.8753 29.032 62.662 29.032ZM76.6358 27.896V29H74.3158V27.16L71.5478 28.904C71.2171 29.0747 70.9024 29.16 70.6038 29.16C70.3158 29.16 70.0811 29.0533 69.8997 28.84C69.7291 28.6267 69.6438 28.3813 69.6438 28.104V22.504C69.6438 22.0133 69.7184 21.6773 69.8678 21.496C70.1238 21.1653 70.5291 21 71.0838 21H74.3158V18.088H73.2598V17H75.6278V27.896H76.6358ZM74.3158 22.088H70.9238V27.992L74.3158 25.88V22.088ZM80.4013 27.912H81.4413V29H78.0813V27.912H79.0893V22.088H78.0813V21H80.4013V27.912ZM79.7453 18.056C79.9693 18.056 80.1559 18.1413 80.3053 18.312C80.4653 18.472 80.5453 18.6693 80.5453 18.904C80.5453 19.128 80.4653 19.32 80.3053 19.48C80.1559 19.6293 79.9639 19.704 79.7293 19.704C79.5053 19.704 79.3133 19.6293 79.1533 19.48C79.0039 19.32 78.9293 19.128 78.9293 18.904C78.9293 18.6693 79.0093 18.472 79.1693 18.312C79.3293 18.1413 79.5213 18.056 79.7453 18.056ZM84.2061 29C83.6621 29 83.2781 28.8773 83.0541 28.632C82.8301 28.376 82.7181 28.024 82.7181 27.576V22.424C82.7181 21.9973 82.8141 21.656 83.0061 21.4C83.2088 21.1333 83.6088 21 84.2061 21H87.1661C87.7528 21 88.1475 21.1333 88.3501 21.4C88.5528 21.656 88.6541 21.9973 88.6541 22.424V27.576C88.6541 28.024 88.5421 28.376 88.3181 28.632C88.0941 28.8773 87.7101 29 87.1661 29H84.2061ZM84.0141 27.912H87.3581V22.088H84.0141V27.912Z" fill="white"/>
<defs>
<clipPath id="clip0_42_73">
<rect width="29" height="29" fill="white"/>
</clipPath>
</defs>
</svg>
