<svg width="934" height="206" viewBox="0 0 934 206" fill="none" xmlns="http://www.w3.org/2000/svg">
<g clip-path="url(#clip0_15_107)">
<path d="M510.828 112.203C513.155 112.203 515.047 110.311 515.047 107.984C515.047 105.658 513.155 103.766 510.828 103.766C510.748 103.766 510.67 103.769 510.595 103.775C509.352 102.047 507.017 100.953 504.5 100.953C501.258 100.953 498.473 102.726 497.691 105.18C495.664 105.033 493.953 106.675 493.953 108.687C493.953 110.626 495.53 112.203 497.469 112.203H502.391V118.01C501.903 117.497 501.316 117.089 500.665 116.811C500.015 116.532 499.314 116.39 498.606 116.392C498.293 116.393 497.985 116.474 497.711 116.627C497.437 116.78 497.207 117 497.042 117.267C496.878 117.533 496.783 117.838 496.769 118.151C496.755 118.464 496.82 118.776 496.96 119.056L497.779 120.695C498.036 121.209 498.172 121.784 498.172 122.358V125.246C498.172 126.002 498.35 126.759 498.685 127.434L500.281 130.649V133.265L512.938 133.299V130.719L514.062 129.219C514.7 128.366 515.045 127.33 515.047 126.266V118.531C515.047 117.368 514.1 116.422 512.938 116.422C512.66 116.422 512.396 116.479 512.153 116.577C512.033 116.13 511.77 115.735 511.403 115.453C511.037 115.171 510.588 115.017 510.125 115.016C509.604 115.017 509.103 115.213 508.719 115.564C508.335 115.213 507.833 115.017 507.312 115.016C507.065 115.016 506.83 115.066 506.609 115.145V112.203H510.828ZM497.469 110.797C496.306 110.797 495.359 109.85 495.359 108.687C495.359 107.525 496.306 106.578 497.469 106.578C497.636 106.578 497.815 106.606 498.033 106.667L498.796 106.88L498.916 106.096C499.243 103.966 501.644 102.359 504.5 102.359C506.716 102.359 508.735 103.351 509.642 104.885L509.888 105.3L510.363 105.221C510.517 105.191 510.672 105.175 510.828 105.172C512.379 105.172 513.641 106.433 513.641 107.984C513.641 109.535 512.379 110.797 510.828 110.797H506.609V108.687C506.609 107.525 505.663 106.578 504.5 106.578C503.337 106.578 502.391 107.525 502.391 108.687V110.797H497.469ZM507.312 116.422C507.499 116.422 507.678 116.496 507.81 116.628C507.942 116.76 508.016 116.939 508.016 117.125V119.937H509.422V117.125C509.422 116.939 509.496 116.76 509.628 116.628C509.76 116.496 509.939 116.422 510.125 116.422C510.311 116.422 510.49 116.496 510.622 116.628C510.754 116.76 510.828 116.939 510.828 117.125V119.937H512.234V118.531C512.234 118.345 512.308 118.166 512.44 118.034C512.572 117.902 512.751 117.828 512.938 117.828C513.124 117.828 513.303 117.902 513.435 118.034C513.567 118.166 513.641 118.345 513.641 118.531V126.266C513.639 127.026 513.393 127.766 512.938 128.375L511.531 130.25V131.889L501.688 131.863V130.32L499.944 126.81C499.704 126.324 499.579 125.789 499.578 125.247V122.358C499.577 121.563 499.392 120.779 499.037 120.067L498.218 118.428C498.187 118.367 498.172 118.301 498.172 118.233C498.172 117.993 498.367 117.799 498.674 117.799C499.659 117.8 500.604 118.192 501.301 118.889C501.997 119.586 502.389 120.531 502.391 121.516V124.127H503.797V108.687C503.797 108.501 503.871 108.322 504.003 108.19C504.135 108.058 504.314 107.984 504.5 107.984C504.686 107.984 504.865 108.058 504.997 108.19C505.129 108.322 505.203 108.501 505.203 108.687V119.937H506.609V117.125C506.609 116.939 506.683 116.76 506.815 116.628C506.947 116.496 507.126 116.422 507.312 116.422ZM486.219 105.91V107.984C486.219 109.535 487.48 110.797 489.031 110.797C490.582 110.797 491.844 109.535 491.844 107.984V105.91C493.924 104.872 495.359 102.728 495.359 100.25C495.359 96.7604 492.521 93.9219 489.031 93.9219C485.542 93.9219 482.703 96.7604 482.703 100.25C482.703 102.729 484.139 104.872 486.219 105.91ZM490.438 107.984C490.438 108.76 489.807 109.391 489.031 109.391C488.256 109.391 487.625 108.76 487.625 107.984V106.415C488.078 106.518 488.548 106.578 489.031 106.578C489.515 106.578 489.985 106.518 490.438 106.415V107.984ZM488.328 100.25C488.328 100.064 488.402 99.8847 488.534 99.7528C488.666 99.621 488.845 99.5469 489.031 99.5469C489.218 99.5469 489.397 99.621 489.528 99.7528C489.66 99.8847 489.734 100.064 489.734 100.25C489.734 100.436 489.66 100.615 489.528 100.747C489.397 100.879 489.218 100.953 489.031 100.953C488.845 100.953 488.666 100.879 488.534 100.747C488.402 100.615 488.328 100.436 488.328 100.25ZM489.031 95.3281C491.745 95.3281 493.953 97.5366 493.953 100.25C493.953 102.724 492.115 104.772 489.734 105.116V102.23C490.144 102.085 490.5 101.818 490.752 101.463C491.003 101.109 491.139 100.685 491.141 100.25C491.141 99.087 490.194 98.1406 489.031 98.1406C487.868 98.1406 486.922 99.087 486.922 100.25C486.922 101.165 487.512 101.939 488.328 102.23V105.116C485.947 104.772 484.109 102.724 484.109 100.25C484.109 97.5366 486.318 95.3281 489.031 95.3281ZM488.328 89.7031H489.734V92.5156H488.328V89.7031ZM484.183 90.7205L485.44 90.092L486.845 92.903L485.587 93.5316L484.183 90.7205ZM491.212 92.908L492.617 90.0969L493.874 90.7255L492.47 93.5366L491.212 92.908ZM523.64 119.791C524.398 119.146 524.891 118.197 524.891 117.125C524.891 115.186 523.314 113.609 521.375 113.609C519.436 113.609 517.859 115.186 517.859 117.125C517.859 118.197 518.352 119.146 519.11 119.791C518.31 120.206 517.64 120.832 517.171 121.602C516.702 122.372 516.454 123.255 516.453 124.156V127.672H526.297V124.156C526.296 123.255 526.048 122.372 525.579 121.602C525.11 120.832 524.44 120.206 523.64 119.791ZM519.266 117.125C519.266 115.962 520.212 115.016 521.375 115.016C522.538 115.016 523.484 115.962 523.484 117.125C523.484 118.288 522.538 119.234 521.375 119.234C520.212 119.234 519.266 118.288 519.266 117.125ZM524.891 126.266H517.859V124.156C517.859 122.218 519.436 120.641 521.375 120.641C523.314 120.641 524.891 122.218 524.891 124.156V126.266ZM522.078 89.7031V91.1094H519.266V92.5156H516.453V100.953H526.297V89.7031H522.078ZM517.859 93.9219H519.266V99.5469H517.859V93.9219ZM520.672 99.5469V92.5156H522.078V99.5469H520.672ZM524.891 99.5469H523.484V91.1094H524.891V99.5469ZM520.672 112.203H522.078V109.391H516.453V110.797H520.672V112.203ZM522.078 102.359H520.672V106.578H516.453V107.984H522.078V102.359ZM485.516 124.156H489.734V125.562H485.516V124.156ZM491.141 124.156H492.547V125.562H491.141V124.156ZM485.516 121.344H492.547V122.75H485.516V121.344Z" fill="white" fill-opacity="0.1"/>
<path d="M493.25 118.531H484.812C483.65 118.531 482.703 119.478 482.703 120.641V126.266C482.703 127.429 483.65 128.375 484.812 128.375H487.334L489.649 130.69C489.968 131.008 490.4 131.186 490.85 131.188C491.3 131.187 491.731 131.008 492.049 130.69C492.367 130.372 492.546 129.94 492.547 129.49V128.375H493.25C494.413 128.375 495.359 127.429 495.359 126.266V120.641C495.359 119.478 494.413 118.531 493.25 118.531ZM493.953 126.266C493.953 126.452 493.879 126.631 493.747 126.763C493.615 126.895 493.436 126.969 493.25 126.969H491.141V129.49C491.141 129.728 490.812 129.864 490.644 129.696L487.916 126.969H484.812C484.626 126.969 484.447 126.895 484.315 126.763C484.183 126.631 484.109 126.452 484.109 126.266V120.641C484.109 120.454 484.183 120.275 484.315 120.143C484.447 120.012 484.626 119.938 484.812 119.938H493.25C493.436 119.938 493.615 120.012 493.747 120.143C493.879 120.275 493.953 120.454 493.953 120.641V126.266ZM503.797 99.5469H505.203V96.7344H496.062V98.1406H503.797V99.5469ZM493.953 114.312H488.328V117.125H489.734V115.719H495.359V112.906H493.953V114.312Z" fill="white" fill-opacity="0.1"/>
</g>
<path d="M0 56H176.5L217 96.5" stroke="white" stroke-opacity="0.1"/>
<circle cx="228.5" cy="110.5" r="7" stroke="white" stroke-opacity="0.1"/>
<path d="M246.5 110.5H332.5L295 73" stroke="white" stroke-opacity="0.1"/>
<line x1="287" y1="65.5" x2="298" y2="65.5" stroke="white" stroke-opacity="0.1"/>
<line x1="287" y1="61.5" x2="298" y2="61.5" stroke="white" stroke-opacity="0.1"/>
<line x1="287" y1="57.5" x2="298" y2="57.5" stroke="white" stroke-opacity="0.1"/>
<line x1="345" y1="65.5" x2="356" y2="65.5" stroke="white" stroke-opacity="0.1"/>
<line x1="345" y1="61.5" x2="356" y2="61.5" stroke="white" stroke-opacity="0.1"/>
<line x1="345" y1="57.5" x2="356" y2="57.5" stroke="white" stroke-opacity="0.1"/>
<path d="M292 50V14H386.5L350.5 50" stroke="white" stroke-opacity="0.1"/>
<path d="M216.5 123L178 161.5H49" stroke="white" stroke-opacity="0.1"/>
<path d="M217 111H94" stroke="white" stroke-opacity="0.1"/>
<g clip-path="url(#clip1_15_107)">
<path d="M76.8856 109.707C77.9947 109.707 78.9549 109.327 79.7397 108.578C80.5243 107.829 80.9222 106.912 80.9222 105.854C80.9222 104.795 80.5244 103.878 79.7396 103.129C78.9548 102.38 77.9945 102 76.8856 102C75.7764 102 74.8163 102.38 74.0316 103.129C73.2469 103.878 72.849 104.795 72.849 105.854C72.849 106.912 73.2469 107.829 74.0316 108.578C74.8166 109.327 75.7768 109.707 76.8856 109.707H76.8856ZM74.7261 103.792C75.3282 103.217 76.0346 102.938 76.8856 102.938C77.7365 102.938 78.443 103.217 79.0452 103.792C79.6473 104.367 79.9401 105.041 79.9401 105.853C79.9401 106.666 79.6473 107.34 79.0452 107.915C78.443 108.49 77.7365 108.77 76.8856 108.77C76.0348 108.77 75.3285 108.49 74.7261 107.915C74.1239 107.34 73.8311 106.666 73.8311 105.854C73.8311 105.041 74.1239 104.367 74.7261 103.792ZM83.9486 114.303C83.9259 113.991 83.8801 113.651 83.8127 113.292C83.7447 112.93 83.6572 112.588 83.5523 112.276C83.4439 111.953 83.2967 111.634 83.1145 111.328C82.9256 111.01 82.7037 110.734 82.4546 110.507C82.1942 110.269 81.8753 110.077 81.5065 109.938C81.139 109.799 80.7318 109.729 80.2962 109.729C80.1251 109.729 79.9597 109.796 79.6401 109.994C79.413 110.136 79.1852 110.276 78.9567 110.415C78.7372 110.549 78.4398 110.674 78.0724 110.787C77.714 110.898 77.3501 110.954 76.9908 110.954C76.6318 110.954 76.2679 110.898 75.9092 110.787C75.5423 110.674 75.2448 110.549 75.0256 110.415C74.7712 110.26 74.5411 110.118 74.3415 109.994C74.0223 109.796 73.8568 109.729 73.6857 109.729C73.25 109.729 72.8429 109.799 72.4755 109.938C72.107 110.077 71.788 110.269 71.5273 110.507C71.2782 110.734 71.0563 111.01 70.8675 111.328C70.6856 111.634 70.5383 111.952 70.4299 112.276C70.3251 112.588 70.2376 112.93 70.1695 113.292C70.102 113.651 70.0564 113.991 70.0337 114.304C70.0115 114.609 70.0002 114.927 70.0002 115.248C70.0002 116.084 70.2783 116.76 70.8267 117.258C71.3684 117.751 72.0849 118 72.9565 118H81.0262C81.8975 118 82.614 117.75 83.1558 117.258C83.7043 116.76 83.9824 116.084 83.9824 115.248C83.9823 114.926 83.9709 114.608 83.9486 114.303ZM82.4787 116.579C82.1208 116.904 81.6456 117.062 81.026 117.062H72.9566C72.3368 117.062 71.8617 116.904 71.5039 116.579C71.153 116.26 70.9824 115.825 70.9824 115.248C70.9824 114.949 70.9927 114.653 71.0135 114.368C71.0336 114.09 71.075 113.783 71.1362 113.458C71.1967 113.136 71.2736 112.835 71.3652 112.562C71.453 112.3 71.5728 112.041 71.7214 111.791C71.8632 111.553 72.0264 111.349 72.2064 111.184C72.3748 111.03 72.5871 110.904 72.8371 110.81C73.0684 110.722 73.3284 110.674 73.6106 110.667C73.645 110.685 73.7062 110.718 73.8054 110.78C74.0073 110.905 74.24 111.049 74.4973 111.206C74.7873 111.382 75.1609 111.541 75.6073 111.679C76.0636 111.82 76.529 111.891 76.991 111.891C77.453 111.891 77.9185 111.82 78.3746 111.679C78.8213 111.541 79.1948 111.382 79.4852 111.205C79.7485 111.045 79.9747 110.906 80.1765 110.78C80.2758 110.718 80.337 110.685 80.3714 110.667C80.6537 110.674 80.9137 110.722 81.1451 110.81C81.3951 110.904 81.6073 111.03 81.7757 111.184C81.9557 111.348 82.1189 111.553 82.2607 111.791C82.4094 112.041 82.5293 112.3 82.617 112.562C82.7087 112.835 82.7858 113.137 82.8462 113.458C82.9073 113.784 82.9487 114.09 82.9689 114.369V114.369C82.9898 114.652 83.0002 114.948 83.0004 115.248C83.0002 115.825 82.8297 116.26 82.4787 116.579H82.4787Z" fill="white" fill-opacity="0.1"/>
</g>
<path d="M934 56H757.5L717 96.5" stroke="white" stroke-opacity="0.1"/>
<path d="M717.5 123L756 161.5H885" stroke="white" stroke-opacity="0.1"/>
<path d="M717 111H840" stroke="white" stroke-opacity="0.1"/>
<g clip-path="url(#clip2_15_107)">
<path d="M857.114 109.707C856.005 109.707 855.045 109.327 854.26 108.578C853.476 107.829 853.078 106.912 853.078 105.854C853.078 104.795 853.476 103.878 854.26 103.129C855.045 102.38 856.005 102 857.114 102C858.224 102 859.184 102.38 859.968 103.129C860.753 103.878 861.151 104.795 861.151 105.854C861.151 106.912 860.753 107.829 859.968 108.578C859.183 109.327 858.223 109.707 857.114 109.707H857.114ZM859.274 103.792C858.672 103.217 857.965 102.938 857.114 102.938C856.263 102.938 855.557 103.217 854.955 103.792C854.353 104.367 854.06 105.041 854.06 105.853C854.06 106.666 854.353 107.34 854.955 107.915C855.557 108.49 856.263 108.77 857.114 108.77C857.965 108.77 858.671 108.49 859.274 107.915C859.876 107.34 860.169 106.666 860.169 105.854C860.169 105.041 859.876 104.367 859.274 103.792ZM850.051 114.303C850.074 113.991 850.12 113.651 850.187 113.292C850.255 112.93 850.343 112.588 850.448 112.276C850.556 111.953 850.703 111.634 850.886 111.328C851.074 111.01 851.296 110.734 851.545 110.507C851.806 110.269 852.125 110.077 852.493 109.938C852.861 109.799 853.268 109.729 853.704 109.729C853.875 109.729 854.04 109.796 854.36 109.994C854.587 110.136 854.815 110.276 855.043 110.415C855.263 110.549 855.56 110.674 855.928 110.787C856.286 110.898 856.65 110.954 857.009 110.954C857.368 110.954 857.732 110.898 858.091 110.787C858.458 110.674 858.755 110.549 858.974 110.415C859.229 110.26 859.459 110.118 859.658 109.994C859.978 109.796 860.143 109.729 860.314 109.729C860.75 109.729 861.157 109.799 861.524 109.938C861.893 110.077 862.212 110.269 862.473 110.507C862.722 110.734 862.944 111.01 863.132 111.328C863.314 111.634 863.462 111.952 863.57 112.276C863.675 112.588 863.762 112.93 863.83 113.292C863.898 113.651 863.944 113.991 863.966 114.304C863.989 114.609 864 114.927 864 115.248C864 116.084 863.722 116.76 863.173 117.258C862.632 117.751 861.915 118 861.043 118H852.974C852.103 118 851.386 117.75 850.844 117.258C850.296 116.76 850.018 116.084 850.018 115.248C850.018 114.926 850.029 114.608 850.051 114.303ZM851.521 116.579C851.879 116.904 852.354 117.062 852.974 117.062H861.043C861.663 117.062 862.138 116.904 862.496 116.579C862.847 116.26 863.018 115.825 863.018 115.248C863.018 114.949 863.007 114.653 862.987 114.368C862.966 114.09 862.925 113.783 862.864 113.458C862.803 113.136 862.726 112.835 862.635 112.562C862.547 112.3 862.427 112.041 862.279 111.791C862.137 111.553 861.974 111.349 861.794 111.184C861.625 111.03 861.413 110.904 861.163 110.81C860.932 110.722 860.672 110.674 860.389 110.667C860.355 110.685 860.294 110.718 860.195 110.78C859.993 110.905 859.76 111.049 859.503 111.206C859.213 111.382 858.839 111.541 858.393 111.679C857.936 111.82 857.471 111.891 857.009 111.891C856.547 111.891 856.082 111.82 855.625 111.679C855.179 111.541 854.805 111.382 854.515 111.205C854.252 111.045 854.025 110.906 853.823 110.78C853.724 110.718 853.663 110.685 853.629 110.667C853.346 110.674 853.086 110.722 852.855 110.81C852.605 110.904 852.393 111.03 852.224 111.184C852.044 111.348 851.881 111.553 851.739 111.791C851.591 112.041 851.471 112.3 851.383 112.562C851.291 112.835 851.214 113.137 851.154 113.458C851.093 113.784 851.051 114.09 851.031 114.369V114.369C851.01 114.652 851 114.948 851 115.248C851 115.825 851.17 116.26 851.521 116.579H851.521Z" fill="white" fill-opacity="0.1"/>
</g>
<path d="M351 70.5L391 110.5V161.5H311" stroke="white" stroke-opacity="0.1"/>
<g clip-path="url(#clip3_15_107)">
<path d="M299.35 154.9C300.261 154.9 301 154.161 301 153.25V146.65C301 145.739 300.261 145 299.35 145H269.65C268.739 145 268 145.739 268 146.65V153.25C268 154.161 268.739 154.9 269.65 154.9H271.3V156.55H269.65C268.739 156.55 268 157.289 268 158.2V164.8C268 165.711 268.739 166.45 269.65 166.45H271.3V168.1H269.65C268.739 168.1 268 168.839 268 169.75V176.35C268 177.261 268.739 178 269.65 178H299.35C300.261 178 301 177.261 301 176.35V169.75C301 168.839 300.261 168.1 299.35 168.1H297.7V166.45H299.35C300.261 166.45 301 165.711 301 164.8V158.2C301 157.289 300.261 156.55 299.35 156.55H297.7V154.9H299.35ZM299.35 169.2C299.496 169.2 299.636 169.258 299.739 169.361C299.842 169.464 299.9 169.604 299.9 169.75V176.35C299.9 176.496 299.842 176.636 299.739 176.739C299.636 176.842 299.496 176.9 299.35 176.9H269.65C269.504 176.9 269.364 176.842 269.261 176.739C269.158 176.636 269.1 176.496 269.1 176.35V169.75C269.1 169.604 269.158 169.464 269.261 169.361C269.364 169.258 269.504 169.2 269.65 169.2H299.35ZM272.4 168.1V166.45H273.5V168.1H272.4ZM274.6 168.1V166.45H294.4V168.1H274.6ZM295.5 168.1V166.45H296.6V168.1H295.5ZM299.35 157.65C299.496 157.65 299.636 157.708 299.739 157.811C299.842 157.914 299.9 158.054 299.9 158.2V164.8C299.9 164.946 299.842 165.086 299.739 165.189C299.636 165.292 299.496 165.35 299.35 165.35H269.65C269.504 165.35 269.364 165.292 269.261 165.189C269.158 165.086 269.1 164.946 269.1 164.8V158.2C269.1 158.054 269.158 157.914 269.261 157.811C269.364 157.708 269.504 157.65 269.65 157.65H299.35ZM272.4 156.55V154.9H273.5V156.55H272.4ZM274.6 156.55V154.9H294.4V156.55H274.6ZM295.5 156.55V154.9H296.6V156.55H295.5ZM269.65 153.8C269.504 153.8 269.364 153.742 269.261 153.639C269.158 153.536 269.1 153.396 269.1 153.25V146.65C269.1 146.504 269.158 146.364 269.261 146.261C269.364 146.158 269.504 146.1 269.65 146.1H299.35C299.496 146.1 299.636 146.158 299.739 146.261C299.842 146.364 299.9 146.504 299.9 146.65V153.25C299.9 153.396 299.842 153.536 299.739 153.639C299.636 153.742 299.496 153.8 299.35 153.8H269.65Z" fill="white" fill-opacity="0.1"/>
<path d="M285.6 149.4H274.499C274.195 148.541 273.252 148.091 272.393 148.394C271.534 148.698 271.084 149.641 271.388 150.5C271.691 151.359 272.634 151.809 273.493 151.506C273.725 151.424 273.936 151.291 274.11 151.117C274.284 150.943 274.417 150.732 274.499 150.5H285.6C285.746 150.5 285.886 150.442 285.989 150.339C286.092 150.236 286.15 150.096 286.15 149.95C286.15 149.804 286.092 149.664 285.989 149.561C285.886 149.458 285.746 149.4 285.6 149.4ZM272.95 150.5C272.804 150.5 272.664 150.442 272.561 150.339C272.458 150.236 272.4 150.096 272.4 149.95C272.4 149.804 272.458 149.664 272.561 149.561C272.664 149.458 272.804 149.4 272.95 149.4C273.096 149.4 273.236 149.458 273.339 149.561C273.442 149.664 273.5 149.804 273.5 149.95C273.5 150.096 273.442 150.236 273.339 150.339C273.236 150.442 273.096 150.5 272.95 150.5ZM292.2 147.2H293.3V148.3H292.2V147.2ZM294.4 147.2H295.5V148.3H294.4V147.2ZM296.6 147.2H297.7V148.3H296.6V147.2ZM290 147.2H291.1V148.3H290V147.2ZM287.8 147.2H288.9V148.3H287.8V147.2ZM292.2 149.4H293.3V150.5H292.2V149.4ZM294.4 149.4H295.5V150.5H294.4V149.4ZM296.6 149.4H297.7V150.5H296.6V149.4ZM290 149.4H291.1V150.5H290V149.4ZM287.8 149.4H288.9V150.5H287.8V149.4ZM292.2 151.6H293.3V152.7H292.2V151.6ZM294.4 151.6H295.5V152.7H294.4V151.6ZM296.6 151.6H297.7V152.7H296.6V151.6ZM290 151.6H291.1V152.7H290V151.6ZM287.8 151.6H288.9V152.7H287.8V151.6ZM285.6 160.95H274.499C274.195 160.091 273.252 159.641 272.393 159.944C271.534 160.248 271.084 161.191 271.388 162.05C271.691 162.909 272.634 163.359 273.493 163.056C273.725 162.974 273.936 162.841 274.11 162.667C274.284 162.493 274.417 162.282 274.499 162.05H285.6C285.746 162.05 285.886 161.992 285.989 161.889C286.092 161.786 286.15 161.646 286.15 161.5C286.15 161.354 286.092 161.214 285.989 161.111C285.886 161.008 285.746 160.95 285.6 160.95ZM272.95 162.05C272.804 162.05 272.664 161.992 272.561 161.889C272.458 161.786 272.4 161.646 272.4 161.5C272.4 161.354 272.458 161.214 272.561 161.111C272.664 161.008 272.804 160.95 272.95 160.95C273.096 160.95 273.236 161.008 273.339 161.111C273.442 161.214 273.5 161.354 273.5 161.5C273.5 161.646 273.442 161.786 273.339 161.889C273.236 161.992 273.096 162.05 272.95 162.05ZM292.2 158.75H293.3V159.85H292.2V158.75ZM294.4 158.75H295.5V159.85H294.4V158.75ZM296.6 158.75H297.7V159.85H296.6V158.75ZM290 158.75H291.1V159.85H290V158.75ZM287.8 158.75H288.9V159.85H287.8V158.75ZM292.2 160.95H293.3V162.05H292.2V160.95ZM294.4 160.95H295.5V162.05H294.4V160.95ZM296.6 160.95H297.7V162.05H296.6V160.95ZM290 160.95H291.1V162.05H290V160.95ZM287.8 160.95H288.9V162.05H287.8V160.95ZM292.2 163.15H293.3V164.25H292.2V163.15ZM294.4 163.15H295.5V164.25H294.4V163.15ZM296.6 163.15H297.7V164.25H296.6V163.15ZM290 163.15H291.1V164.25H290V163.15ZM287.8 163.15H288.9V164.25H287.8V163.15ZM285.6 172.5H274.499C274.195 171.641 273.252 171.191 272.393 171.494C271.534 171.798 271.084 172.741 271.388 173.6C271.691 174.459 272.634 174.909 273.493 174.606C273.725 174.524 273.936 174.391 274.11 174.217C274.284 174.043 274.417 173.832 274.499 173.6H285.6C285.746 173.6 285.886 173.542 285.989 173.439C286.092 173.336 286.15 173.196 286.15 173.05C286.15 172.904 286.092 172.764 285.989 172.661C285.886 172.558 285.746 172.5 285.6 172.5ZM272.95 173.6C272.804 173.6 272.664 173.542 272.561 173.439C272.458 173.336 272.4 173.196 272.4 173.05C272.4 172.904 272.458 172.764 272.561 172.661C272.664 172.558 272.804 172.5 272.95 172.5C273.096 172.5 273.236 172.558 273.339 172.661C273.442 172.764 273.5 172.904 273.5 173.05C273.5 173.196 273.442 173.336 273.339 173.439C273.236 173.542 273.096 173.6 272.95 173.6ZM292.2 170.3H293.3V171.4H292.2V170.3ZM294.4 170.3H295.5V171.4H294.4V170.3ZM296.6 170.3H297.7V171.4H296.6V170.3ZM290 170.3H291.1V171.4H290V170.3ZM287.8 170.3H288.9V171.4H287.8V170.3ZM292.2 172.5H293.3V173.6H292.2V172.5ZM294.4 172.5H295.5V173.6H294.4V172.5ZM296.6 172.5H297.7V173.6H296.6V172.5ZM290 172.5H291.1V173.6H290V172.5ZM287.8 172.5H288.9V173.6H287.8V172.5ZM292.2 174.7H293.3V175.8H292.2V174.7ZM294.4 174.7H295.5V175.8H294.4V174.7ZM296.6 174.7H297.7V175.8H296.6V174.7ZM290 174.7H291.1V175.8H290V174.7ZM287.8 174.7H288.9V175.8H287.8V174.7Z" fill="white" fill-opacity="0.1"/>
</g>
<path d="M285.5 188V205.5H508.5V146" stroke="white" stroke-opacity="0.1"/>
<path d="M509.5 84V12.5H554" stroke="white" stroke-opacity="0.1"/>
<g clip-path="url(#clip4_15_107)">
<path d="M591.285 3.41772C590.917 3.04932 590.321 3.04868 589.953 3.41616L578.649 14.6897L574.571 10.2604C574.219 9.87783 573.623 9.85303 573.24 10.2054C572.857 10.5578 572.833 11.1539 573.185 11.5367L577.927 16.6872C578.013 16.7805 578.117 16.8556 578.233 16.9078C578.349 16.96 578.474 16.9882 578.6 16.9909C578.607 16.9912 578.614 16.9912 578.621 16.9912C578.87 16.9911 579.109 16.8923 579.286 16.7164L591.283 4.75029C591.652 4.38286 591.653 3.78613 591.285 3.41772Z" fill="white" fill-opacity="0.1"/>
<path d="M591.058 11.5578C590.537 11.5578 590.116 11.9795 590.116 12.5C590.116 18.3537 585.354 23.1156 579.5 23.1156C573.647 23.1156 568.884 18.3537 568.884 12.5C568.884 6.64668 573.647 1.88442 579.5 1.88442C580.02 1.88442 580.442 1.46265 580.442 0.942236C580.442 0.421777 580.02 0 579.5 0C572.607 0 567 5.60742 567 12.5C567 19.3923 572.607 25 579.5 25C586.392 25 592 19.3923 592 12.5C592 11.9796 591.578 11.5578 591.058 11.5578Z" fill="white" fill-opacity="0.1"/>
</g>
<path d="M692.465 105.093C694.145 105.093 695.512 103.727 695.512 102.046C695.512 100.366 694.145 98.9992 692.465 98.9992C690.784 98.9992 689.418 100.366 689.418 102.046C689.418 103.727 690.784 105.093 692.465 105.093ZM692.465 100.405C693.37 100.405 694.106 101.141 694.106 102.046C694.106 102.951 693.37 103.687 692.465 103.687C691.56 103.687 690.824 102.951 690.824 102.046C690.824 101.141 691.56 100.405 692.465 100.405ZM688.759 126.766C689.681 126.766 690.487 126.175 690.768 125.298C691.909 121.729 692.535 118.698 692.561 118.572C692.683 117.974 692.542 117.353 692.172 116.868C692.13 116.812 691.183 115.584 689.629 114.355C689.978 113.575 690.498 112.495 691.117 111.435C691.131 111.466 691.148 111.496 691.162 111.527L691.841 112.973C692.013 113.334 692.283 113.64 692.621 113.855C692.959 114.069 693.351 114.184 693.752 114.184C694.047 114.185 694.338 114.122 694.607 114.002L698.512 112.267C699.037 112.033 699.438 111.606 699.634 111.067C699.834 110.528 699.806 109.945 699.555 109.424C699.065 108.407 697.804 107.964 696.745 108.435L694.769 109.314C693.836 107.584 692.336 106.244 690.498 105.508C688.743 104.805 686.779 104.718 684.967 105.262C683.071 105.845 681.398 107.055 680.254 108.67L679.012 110.423C678.686 110.884 678.559 111.442 678.656 111.998C678.752 112.553 679.059 113.038 679.518 113.362C679.938 113.658 680.453 113.791 680.964 113.734C681.056 113.724 681.145 113.697 681.226 113.652C681.307 113.608 681.379 113.548 681.437 113.476C681.495 113.404 681.538 113.321 681.564 113.232C681.589 113.143 681.598 113.05 681.588 112.959C681.545 112.572 681.196 112.295 680.812 112.335C680.634 112.355 680.455 112.305 680.312 112.198C680.169 112.091 680.072 111.933 680.041 111.756C680.008 111.571 680.05 111.386 680.16 111.231L681.4 109.478C682.366 108.121 683.777 107.099 685.373 106.609C686.886 106.16 688.507 106.232 689.973 106.816C691.617 107.471 692.95 108.727 693.702 110.329L693.798 110.53C693.877 110.697 694.017 110.826 694.189 110.89C694.361 110.953 694.552 110.947 694.72 110.873L697.312 109.72C697.684 109.553 698.123 109.694 698.284 110.034C698.369 110.207 698.378 110.402 698.31 110.582C698.245 110.763 698.111 110.905 697.935 110.983L694.031 112.717C693.688 112.87 693.266 112.708 693.109 112.375L692.43 110.929C692.221 110.486 691.949 110.066 691.623 109.684C691.481 109.516 691.265 109.427 691.045 109.438C690.824 109.452 690.623 109.57 690.501 109.755C689.47 111.323 688.633 113.095 688.113 114.304C687.984 114.606 688.08 114.955 688.345 115.15C690.004 116.362 691.009 117.67 691.052 117.723C691.176 117.885 691.223 118.091 691.181 118.291C691.155 118.415 690.545 121.373 689.425 124.872C689.331 125.165 689.062 125.362 688.755 125.362C688.654 125.362 688.553 125.338 688.457 125.296C688.143 125.151 687.988 124.752 688.103 124.387C688.874 121.963 689.404 119.777 689.652 118.689C689.704 118.464 689.641 118.23 689.486 118.059C688.888 117.407 687.913 116.472 686.659 115.717C686.499 115.622 686.308 115.593 686.127 115.639C685.946 115.684 685.79 115.799 685.694 115.959C685.497 116.289 685.605 116.72 685.938 116.922C686.915 117.508 687.712 118.239 688.199 118.741C687.932 119.889 687.445 121.83 686.765 123.958C686.432 125.005 686.908 126.13 687.871 126.571C688.157 126.7 688.455 126.766 688.759 126.766Z" fill="white" fill-opacity="0.1"/>
<path d="M680.083 126.766C680.634 126.766 681.187 126.55 681.599 126.123C682.183 125.519 685.141 122.395 685.966 120.177C686.071 119.894 686.16 119.535 686.235 119.08C686.298 118.698 686.041 118.335 685.659 118.27C685.277 118.206 684.913 118.464 684.848 118.846C684.773 119.296 684.695 119.552 684.646 119.688C684.044 121.309 681.813 123.88 680.589 125.146C680.32 125.425 679.874 125.432 679.595 125.163C679.316 124.893 679.309 124.448 679.579 124.169C680.439 123.278 682.79 120.651 683.329 119.198C683.575 118.539 683.699 116.336 683.718 115.101C683.718 115.059 683.723 115.016 683.732 114.974C683.756 114.852 684.341 111.974 685.86 109.187C685.904 109.106 685.932 109.017 685.942 108.926C685.952 108.834 685.943 108.741 685.917 108.652C685.891 108.564 685.848 108.481 685.79 108.409C685.732 108.337 685.66 108.278 685.579 108.234C685.498 108.189 685.409 108.162 685.317 108.152C685.225 108.142 685.132 108.151 685.044 108.177C684.955 108.203 684.873 108.246 684.801 108.304C684.729 108.362 684.669 108.434 684.625 108.515C683.006 111.489 682.38 114.571 682.354 114.702C682.331 114.827 682.316 114.953 682.314 115.08C682.286 116.713 682.127 118.403 682.012 118.71C681.67 119.634 679.956 121.757 678.569 123.194C677.76 124.03 677.784 125.366 678.618 126.175C679.011 126.555 679.536 126.767 680.083 126.766ZM672.344 107.078H673.516C673.905 107.078 674.219 106.764 674.219 106.375C674.219 105.986 673.905 105.672 673.516 105.672H672.344C671.955 105.672 671.641 105.986 671.641 106.375C671.641 106.764 671.955 107.078 672.344 107.078Z" fill="white" fill-opacity="0.1"/>
<path d="M672.344 107.078H673.516C673.905 107.078 674.219 106.764 674.219 106.375C674.219 105.986 673.905 105.672 673.516 105.672H672.344C671.955 105.672 671.641 105.986 671.641 106.375C671.641 106.764 671.955 107.078 672.344 107.078ZM679.375 102.391H680.547C680.936 102.391 681.25 102.077 681.25 101.688C681.25 101.298 680.936 100.984 680.547 100.984H679.375C678.986 100.984 678.672 101.298 678.672 101.688C678.672 102.077 678.986 102.391 679.375 102.391ZM670.938 102.391H675.859C676.248 102.391 676.562 102.077 676.562 101.688C676.562 101.298 676.248 100.984 675.859 100.984H670.938C670.548 100.984 670.234 101.298 670.234 101.688C670.234 102.077 670.548 102.391 670.938 102.391Z" fill="white" fill-opacity="0.1"/>
<path d="M658.5 112H579.5V32.5" stroke="white" stroke-opacity="0.1"/>
<defs>
<clipPath id="clip0_15_107">
<rect width="45" height="45" fill="white" transform="translate(482 89)"/>
</clipPath>
<clipPath id="clip1_15_107">
<rect width="14" height="16" fill="white" transform="translate(70 102)"/>
</clipPath>
<clipPath id="clip2_15_107">
<rect width="14" height="16" fill="white" transform="matrix(-1 0 0 1 864 102)"/>
</clipPath>
<clipPath id="clip3_15_107">
<rect width="33" height="33" fill="white" transform="translate(268 145)"/>
</clipPath>
<clipPath id="clip4_15_107">
<rect width="25" height="25" fill="white" transform="translate(567)"/>
</clipPath>
</defs>
</svg>
